<svg width="128" height="128" viewBox="0 0 128 128" fill="none" xmlns="http://www.w3.org/2000/svg">
<g clip-path="url(#clip0_6_20)">
<rect width="128" height="128" rx="64" fill="black"/>
<path d="M35.2442 82.4435C29.599 82.4435 25.1232 81.0323 21.8168 78.2097C18.5909 75.3065 16.978 71.3548 16.978 66.3548C16.978 62.4032 17.9861 58.9355 20.0022 55.9516C22.0184 52.8871 24.7603 50.5081 28.228 48.8145C31.7764 47.121 35.728 46.2742 40.0829 46.2742C44.1958 46.2742 48.4297 47.0806 52.7845 48.6936C57.22 50.3065 62.5829 53.129 68.8732 57.1613L64.2764 59.5806C59.5184 56.5161 55.2442 54.3387 51.4538 53.0484C47.7442 51.6774 44.1151 50.9919 40.5668 50.9919C36.2926 50.9919 32.8248 51.7581 30.1635 53.2903C27.5829 54.7419 26.2926 56.6774 26.2926 59.0968C26.2926 60.9516 27.1393 62.4032 28.8329 63.4516C30.5264 64.4194 32.8651 64.9032 35.849 64.9032C39.3168 64.9032 43.0668 64.2581 47.099 62.9677C51.1313 61.6774 55.3248 60.1048 59.6797 58.25C64.0345 56.3145 68.47 54.4194 72.9861 52.5645C77.5022 50.629 81.9377 49.0161 86.2926 47.7258C90.728 46.4355 95.0426 45.7903 99.2361 45.7903C104.881 45.7903 109.317 47.2016 112.543 50.0242C115.768 52.8468 117.381 56.7581 117.381 61.7581C117.381 65.7097 116.373 69.2177 114.357 72.2823C112.341 75.2661 109.599 77.6452 106.131 79.4194C102.744 81.1129 98.8329 81.9597 94.3974 81.9597C91.5748 81.9597 88.7119 81.5968 85.8087 80.871C82.9861 80.1452 79.9216 79.0161 76.6151 77.4839C73.3893 75.871 69.6797 73.7339 65.4861 71.0726L69.8409 68.5323C72.8248 70.5484 75.6877 72.2016 78.4297 73.4919C81.2522 74.7823 83.9538 75.75 86.5345 76.3952C89.1958 76.9597 91.6958 77.2419 94.0345 77.2419C98.0668 77.2419 101.414 76.4758 104.075 74.9435C106.736 73.3306 108.067 71.3548 108.067 69.0161C108.067 67.0806 107.22 65.6694 105.526 64.7823C103.833 63.8145 101.454 63.3306 98.3893 63.3306C94.7603 63.3306 90.8893 63.9758 86.7764 65.2661C82.7442 66.5565 78.5506 68.1694 74.1958 70.1048C69.9216 71.9597 65.5668 73.8548 61.1313 75.7903C56.7764 77.6452 52.4216 79.2177 48.0668 80.5081C43.7119 81.7984 39.4377 82.4435 35.2442 82.4435Z" fill="url(#paint0_radial_6_20)"/>
</g>
<defs>
<radialGradient id="paint0_radial_6_20" cx="0" cy="0" r="1" gradientTransform="matrix(119.625 180 -116 185.625 2.375 -26)" gradientUnits="userSpaceOnUse">
<stop offset="0" stop-color="#d4622b"/>
<stop offset="0.55" stop-color="#e8913c"/>
<stop offset="1" stop-color="#f5c45a"/>
</radialGradient>
<clipPath id="clip0_6_20">
<rect width="128" height="128" rx="64" fill="white"/>
</clipPath>
</defs>
</svg>
