<svg width="256" height="256" viewBox="0 0 256 256" fill="none" xmlns="http://www.w3.org/2000/svg">
<g clip-path="url(#clip0_5_17)">
<rect width="256" height="256" rx="128" fill="black"/>
<path d="M70.4883 167.887C59.198 167.887 50.2464 165.065 43.6335 159.419C37.1819 153.613 33.9561 145.71 33.9561 135.71C33.9561 127.806 35.9722 120.871 40.0045 114.903C44.0367 108.774 49.5206 104.016 56.4561 100.629C63.5529 97.2419 71.4561 95.5484 80.1658 95.5484C88.3916 95.5484 96.8593 97.1613 105.569 100.387C114.44 103.613 125.166 109.258 137.746 117.323L128.553 122.161C119.037 116.032 110.488 111.677 102.908 109.097C95.4883 106.355 88.2303 104.984 81.1335 104.984C72.5851 104.984 65.6496 106.516 60.3271 109.581C55.1658 112.484 52.5851 116.355 52.5851 121.194C52.5851 124.903 54.2787 127.806 57.6658 129.903C61.0529 131.839 65.7303 132.806 71.698 132.806C78.6335 132.806 86.1335 131.516 94.198 128.935C102.263 126.355 110.65 123.21 119.359 119.5C128.069 115.629 136.94 111.839 145.972 108.129C155.004 104.258 163.875 101.032 172.585 98.4516C181.456 95.871 190.085 94.5806 198.472 94.5806C209.763 94.5806 218.634 97.4032 225.085 103.048C231.537 108.694 234.763 116.516 234.763 126.516C234.763 134.419 232.746 141.435 228.714 147.565C224.682 153.532 219.198 158.29 212.263 161.839C205.488 165.226 197.666 166.919 188.795 166.919C183.15 166.919 177.424 166.194 171.617 164.742C165.972 163.29 159.843 161.032 153.23 157.968C146.779 154.742 139.359 150.468 130.972 145.145L139.682 140.065C145.65 144.097 151.375 147.403 156.859 149.984C162.504 152.565 167.908 154.5 173.069 155.79C178.392 156.919 183.392 157.484 188.069 157.484C196.134 157.484 202.827 155.952 208.15 152.887C213.472 149.661 216.134 145.71 216.134 141.032C216.134 137.161 214.44 134.339 211.053 132.565C207.666 130.629 202.908 129.661 196.779 129.661C189.521 129.661 181.779 130.952 173.553 133.532C165.488 136.113 157.101 139.339 148.392 143.21C139.843 146.919 131.134 150.71 122.263 154.581C113.553 158.29 104.843 161.435 96.1335 164.016C87.4238 166.597 78.8754 167.887 70.4883 167.887Z" fill="url(#paint0_radial_5_17)"/>
</g>
<defs>
<radialGradient id="paint0_radial_5_17" cx="0" cy="0" r="1" gradientTransform="matrix(239.25 360 -232 371.25 4.75 -49)" gradientUnits="userSpaceOnUse">
<stop offset="0.0811383"/>
<stop offset="1" stop-color="white"/>
</radialGradient>
<clipPath id="clip0_5_17">
<rect width="256" height="256" rx="128" fill="white"/>
</clipPath>
</defs>
</svg>
