<svg width="512" height="512" viewBox="0 0 512 512" fill="none" xmlns="http://www.w3.org/2000/svg">
<g clip-path="url(#clip0_5_2)">
<rect width="512" height="512" rx="256" fill="black"/>
<path d="M141.477 328.774C118.896 328.774 100.993 323.129 87.767 311.839C74.8638 300.226 68.4122 284.419 68.4122 264.419C68.4122 248.613 72.4444 234.742 80.5089 222.806C88.5735 210.548 99.5412 201.032 113.412 194.258C127.606 187.484 143.412 184.097 160.832 184.097C177.283 184.097 194.219 187.323 211.638 193.774C229.38 200.226 250.832 211.516 275.993 227.645L257.606 237.323C238.573 225.065 221.477 216.355 206.315 211.194C191.477 205.71 176.961 202.968 162.767 202.968C145.67 202.968 131.799 206.032 121.154 212.161C110.832 217.968 105.67 225.71 105.67 235.387C105.67 242.806 109.057 248.613 115.832 252.806C122.606 256.677 131.961 258.613 143.896 258.613C157.767 258.613 172.767 256.032 188.896 250.871C205.025 245.71 221.799 239.419 239.219 232C256.638 224.258 274.38 216.677 292.444 209.258C310.509 201.516 328.251 195.065 345.67 189.903C363.412 184.742 380.67 182.161 397.444 182.161C420.025 182.161 437.767 187.806 450.67 199.097C463.573 210.387 470.025 226.032 470.025 246.032C470.025 261.839 465.993 275.871 457.928 288.129C449.864 300.065 438.896 309.581 425.025 316.677C411.477 323.452 395.832 326.839 378.09 326.839C366.799 326.839 355.348 325.387 343.735 322.484C332.444 319.581 320.186 315.065 306.961 308.935C294.057 302.484 279.219 293.935 262.444 283.29L279.864 273.129C291.799 281.194 303.251 287.806 314.219 292.968C325.509 298.129 336.315 302 346.638 304.581C357.283 306.839 367.283 307.968 376.638 307.968C392.767 307.968 406.154 304.903 416.799 298.774C427.444 292.323 432.767 284.419 432.767 275.065C432.767 267.323 429.38 261.677 422.606 258.129C415.832 254.258 406.315 252.323 394.057 252.323C379.541 252.323 364.057 254.903 347.606 260.065C331.477 265.226 314.702 271.677 297.283 279.419C280.186 286.839 262.767 294.419 245.025 302.161C227.606 309.581 210.186 315.871 192.767 321.032C175.348 326.194 158.251 328.774 141.477 328.774Z" fill="url(#paint0_radial_5_2)"/>
</g>
<rect x="0.5" y="0.5" width="511" height="511" rx="255.5" stroke="#343333"/>
<defs>
<radialGradient id="paint0_radial_5_2" cx="0" cy="0" r="1" gradientTransform="matrix(477.469 720 -463 742.5 10.5312 -104)" gradientUnits="userSpaceOnUse">
<stop offset="0.0811383"/>
<stop offset="1" stop-color="white"/>
</radialGradient>
<clipPath id="clip0_5_2">
<rect width="512" height="512" rx="256" fill="white"/>
</clipPath>
</defs>
</svg>
