<svg xmlns="http://www.w3.org/2000/svg" width="280" height="40" fill="none" viewBox="0 0 560 84"><path fill="#fff" d="M22.528 83.072V17.536H16.256V28.416H0V11.008H11.264V0H50.176V11.008H61.568V28.416H45.184V17.536H38.912V83.072H22.528Z"/><g><path fill="#fff" d="M0 61.184V11.008H11.264V0H50.176V11.008H61.568V28.288H45.184V17.408H16.256V61.184H0Z" transform="translate(68,22)"/></g><g><path fill="#fff" d="M11.264 61.184V50.304H0V0H16.256V43.776H45.184V0H61.568V50.304H50.176V61.184H11.264Z" transform="translate(136,22)"/></g><g><path fill="#fff" d="M0 61.184V43.776H45.184V39.296H11.264V28.288H0V11.008H11.264V0H61.568V17.408H16.256V21.76H50.176V32.768H61.568V50.304H50.176V61.184H0Z" transform="translate(204,22)"/></g><g><path fill="#fff" d="M22.528 83.072V72.192H11.264V39.296H0V21.888H11.264V0H27.52V21.888H61.568V39.296H27.52V65.664H56.576V54.656H72.96V72.192H61.568V83.072H22.528Z" transform="translate(272,0)"/></g><g><path fill="#fff" d="M11.264 83.072V72.192H0V0H16.256V65.664H45.184V54.656H61.568V72.192H50.176V83.072H11.264Z" transform="translate(352,0)"/></g><g><path fill="#fff" d="M15.587 31.278C10.77 31.278 6.951 30.073 4.129 27.665C1.376 25.187 0 21.815 0 17.548C0 14.176 0.86 11.217 2.581 8.671C4.301 6.056 6.641 4.026 9.6 2.581C12.628 1.136 16 0.413 19.716 0.413C23.226 0.413 26.839 1.101 30.555 2.477C34.34 3.854 38.916 6.262 44.284 9.703L40.361 11.768C36.301 9.153 32.654 7.295 29.419 6.194C26.254 5.024 23.157 4.439 20.129 4.439C16.482 4.439 13.523 5.093 11.252 6.4C9.049 7.639 7.948 9.29 7.948 11.355C7.948 12.938 8.671 14.176 10.116 15.071C11.561 15.897 13.557 16.31 16.103 16.31C19.062 16.31 22.262 15.759 25.703 14.658C29.144 13.557 32.723 12.215 36.439 10.632C40.155 8.981 43.94 7.363 47.794 5.781C51.647 4.129 55.432 2.753 59.148 1.652C62.933 0.551 66.615 0 70.194 0C75.011 0 78.796 1.204 81.548 3.613C84.301 6.022 85.677 9.359 85.677 13.626C85.677 16.998 84.817 19.991 83.097 22.607C81.376 25.153 79.037 27.183 76.077 28.697C73.187 30.142 69.85 30.865 66.065 30.865C63.656 30.865 61.213 30.555 58.736 29.936C56.327 29.316 53.712 28.353 50.89 27.045C48.138 25.669 44.972 23.845 41.394 21.574L45.11 19.407C47.656 21.127 50.099 22.538 52.439 23.639C54.847 24.74 57.153 25.566 59.355 26.116C61.626 26.598 63.759 26.839 65.755 26.839C69.196 26.839 72.052 26.185 74.323 24.878C76.594 23.501 77.729 21.815 77.729 19.819C77.729 18.168 77.007 16.964 75.561 16.207C74.116 15.381 72.086 14.968 69.471 14.968C66.374 14.968 63.071 15.518 59.561 16.619C56.12 17.721 52.542 19.097 48.826 20.748C45.179 22.331 41.462 23.948 37.677 25.6C33.961 27.183 30.245 28.525 26.529 29.626C22.813 30.727 19.166 31.278 15.587 31.278Z" transform="translate(418,26)"/></g><g><path fill="#fff" d="M0 82.432V11.008H11.264V0H50.176V11.008H61.568V50.304H50.176V61.184H16.256V82.432H0ZM16.256 43.776H45.184V17.408H16.256V43.776Z" transform="translate(498,1)"/></g></svg>