<svg width="106" height="62" viewBox="0 0 106 62" fill="none" xmlns="http://www.w3.org/2000/svg">
<path d="M105.984 30.336C105.984 48 96.384 61.568 80 61.568C68.48 61.568 60.416 56.832 52.864 41.472C46.592 54.272 37.888 60.928 25.6 61.056C10.624 61.184 -1.4782e-05 49.408 -1.4782e-05 30.848C-1.4782e-05 13.184 10.368 1.90735e-05 26.112 1.90735e-05C35.584 1.90735e-05 45.44 4.48002 53.376 20.608C61.056 5.12002 68.48 0.384018 80.256 0.384018C95.488 0.384018 105.984 12.544 105.984 30.336ZM8.70399 30.848C8.70399 42.24 14.592 52.48 25.984 52.48C35.328 52.48 42.24 45.184 48.64 31.36C42.496 16.64 36.096 8.44802 26.24 8.44802C15.104 8.44802 8.70399 18.944 8.70399 30.848ZM79.744 8.96002C69.632 8.96002 64.384 16.896 57.728 30.848C63.616 45.056 69.76 52.992 79.488 52.992C90.752 52.992 97.536 42.752 97.536 30.976C97.536 18.816 90.496 8.96002 79.744 8.96002Z" fill="white"/>
</svg>
